<?xml version="1.0" encoding="UTF-8" standalone="no"?>
<!-- Created with Inkscape (http://www.inkscape.org/) -->

<svg
   width="154px"
   height="43px"
   viewBox="0 0 154.00658 43.560204"
   version="1.1"
   id="svg11970"
   inkscape:version="1.2.2 (b0a8486541, 2022-12-01)"
   sodipodi:docname="logo-text.svg"
   xmlns:inkscape="http://www.inkscape.org/namespaces/inkscape"
   xmlns:sodipodi="http://sodipodi.sourceforge.net/DTD/sodipodi-0.dtd"
   xmlns="http://www.w3.org/2000/svg"
   xmlns:svg="http://www.w3.org/2000/svg">
  <sodipodi:namedview
     id="namedview11972"
     pagecolor="#ffffff"
     bordercolor="#000000"
     borderopacity="0.25"
     inkscape:showpageshadow="2"
     inkscape:pageopacity="0.0"
     inkscape:pagecheckerboard="0"
     inkscape:deskcolor="#d1d1d1"
     inkscape:document-units="mm"
     showgrid="false"
     inkscape:zoom="4.3036692"
     inkscape:cx="152.54425"
     inkscape:cy="87.59967"
     inkscape:window-width="1920"
     inkscape:window-height="1007"
     inkscape:window-x="1920"
     inkscape:window-y="0"
     inkscape:window-maximized="1"
     inkscape:current-layer="text113-3-7" />
  <defs
     id="defs11967" />
  <g
     inkscape:label="Слой 1"
     inkscape:groupmode="layer"
     id="layer1"
     transform="translate(-52.041261,-5.8890794)">
    <g
       aria-label="чей-ход"
       id="text113-3-7"
       style="font-size:43.899px;stroke-width:1.176">
      <path
         d="M 68.336702,21.836814 H 65.35157 v 11.018648 h -5.662971 c -3.424122,0.131697 -4.741092,-1.229172 -4.653294,-4.784991 v -6.233657 h -2.985132 v 6.233657 c -0.175596,5.26788 2.238849,7.638426 7.638426,7.46283 h 5.662971 v 8.296911 h 2.985132 z"
         style="font-family:'URW Gothic';-inkscape-font-specification:'URW Gothic'"
         id="path291" />
      <path
         d="m 95.071185,33.909038 c -0.0878,-2.677839 -0.351192,-4.082607 -1.097475,-5.926365 -1.843758,-4.302102 -5.399577,-6.628748 -10.272366,-6.628748 -6.409254,0 -11.369841,5.048384 -11.369841,11.589335 0,6.453153 4.960587,11.41374 11.457639,11.41374 2.809536,0 5.355678,-0.921879 7.375032,-2.677839 1.536465,-1.360869 2.370546,-2.590041 3.380223,-5.004486 h -3.07293 c -1.668162,3.336324 -4.258203,5.004486 -7.726224,5.004486 -2.151051,0 -4.126506,-0.746283 -5.662971,-2.19495 -1.580364,-1.448667 -2.326647,-2.985132 -2.677839,-5.575173 z M 75.404433,31.231199 c 0.570687,-2.458344 1.404768,-3.907011 2.985132,-5.223981 1.492566,-1.273071 3.380223,-1.975455 5.355678,-1.975455 1.887657,0 3.643617,0.614586 5.048385,1.799859 1.624263,1.360869 2.458344,2.809536 3.07293,5.399577 z"
         style="font-family:'URW Gothic';-inkscape-font-specification:'URW Gothic'"
         id="path293" />
      <path
         d="m 102.70958,14.11059 c 0.74628,3.292425 2.85343,5.048385 6.10196,5.048385 3.29242,0 5.39958,-1.75596 6.14586,-5.048385 h -2.54614 c -0.43899,1.799859 -1.66816,2.765637 -3.59972,2.765637 -1.88766,0 -3.16073,-0.965778 -3.55582,-2.765637 z m -0.35119,28.578248 12.8624,-15.320751 v 16.462125 h 2.98514 V 21.836814 h -2.98514 v 1.27307 l -12.8624,15.320751 V 21.836814 h -2.985135 v 21.993398 h 2.985135 z"
         style="font-family:'URW Gothic';-inkscape-font-specification:'URW Gothic'"
         id="path295" />
      <path
         d="m 122.24463,30.836108 v 2.765637 h 11.89663 v -2.765637 z"
         style="font-family:'URW Gothic';-inkscape-font-specification:'URW Gothic'"
         id="path297" />
      <path
         d="m 135.76554,43.830212 h 3.51192 l 5.79467,-8.823699 5.83857,8.823699 h 3.51192 l -7.55063,-11.194245 7.55063,-10.799153 h -3.51192 l -5.83857,8.472506 -5.79467,-8.472506 h -3.51192 l 7.50673,10.799153 z"
         style="fill:#42cf71"
         id="path299" />
      <path
         d="m 167.46061,21.310026 c -6.45315,0 -11.41374,5.048384 -11.41374,11.545436 0,6.497052 4.96059,11.501538 11.50154,11.501538 6.49705,0 11.50153,-5.004486 11.50153,-11.501538 0,-6.58485 -4.96058,-11.545436 -11.58933,-11.545436 z m 0.1317,2.677838 c 4.82889,0 8.4725,3.819213 8.4725,8.867598 0,5.048385 -3.64361,8.823699 -8.5164,8.823699 -4.87279,0 -8.51641,-3.775314 -8.51641,-8.823699 0,-5.092284 3.64362,-8.867598 8.56031,-8.867598 z"
         style="fill:#42cf71"
         id="path301" />
      <path
         d="m 195.20479,21.836814 h -3.24852 l -8.56031,19.315559 h -2.28274 v 8.29691 h 2.98513 v -5.619071 h 18.96436 v 5.619071 h 2.98514 v -8.29691 h -2.28275 z m -8.5603,19.315559 6.93604,-15.979236 6.93604,15.979236 z"
         style="fill:#42cf71"
         id="path303" />
    </g>
    <path
       style="fill:#42cf71;fill-opacity:1;stroke-width:0.36807"
       d="m 52.350996,20.738608 c 0,0 2.521855,-6.888231 1.893535,-8.159754 -0.411979,-0.833718 -1.880825,-0.857876 -1.880825,-0.857876 V 5.8890797 h 2.447961 v 2.8260579 l 1.795768,5.289e-4 V 5.8890797 h 7.381424 v 2.8265245 h 1.711887 V 5.8890797 h 2.531838 c -0.09502,1.9530618 0.08008,4.0209178 0,5.8389863 0,0 -1.4771,-0.05835 -1.723665,0.850868 -0.441178,1.626994 1.705745,8.159781 1.705745,8.159781 l -2.407598,-1.07e-4 -1.649126,-8.319874 -4.075418,-2.14e-4 -4.075417,-2.04e-4 -1.309774,8.320399 z"
       id="path707-2-9"
       sodipodi:nodetypes="csccccccccccccsccccccc" />
  </g>
</svg>
