<svg width="15" height="15" viewBox="0 0 21 22" fill="none" xmlns="http://www.w3.org/2000/svg">
<path d="M2.93872 19.4355H18.3101" stroke="#000" stroke-width="1.02476" stroke-linecap="round" stroke-linejoin="round"/>
<path d="M5.159 7.80457H3.79268C3.323 7.80457 2.93872 8.18886 2.93872 8.65854V16.0197C2.93872 16.4894 3.323 16.8737 3.79268 16.8737H5.159C5.62868 16.8737 6.01297 16.4894 6.01297 16.0197V8.65854C6.01297 8.18886 5.62868 7.80457 5.159 7.80457Z" stroke="#000" stroke-width="1.02476" stroke-linecap="round" stroke-linejoin="round"/>
<path d="M11.3076 5.08043H9.94124C9.47156 5.08043 9.08728 5.46471 9.08728 5.93439V16.0197C9.08728 16.4894 9.47156 16.8737 9.94124 16.8737H11.3076C11.7772 16.8737 12.1615 16.4894 12.1615 16.0197V5.93439C12.1615 5.46471 11.7772 5.08043 11.3076 5.08043Z" stroke="#000" stroke-width="1.02476" stroke-linecap="round" stroke-linejoin="round"/>
<path d="M17.4561 2.35629H16.0898C15.6201 2.35629 15.2358 2.74057 15.2358 3.21025V16.0197C15.2358 16.4894 15.6201 16.8737 16.0898 16.8737H17.4561C17.9258 16.8737 18.3101 16.4894 18.3101 16.0197V3.21025C18.3101 2.74057 17.9258 2.35629 17.4561 2.35629Z" stroke="#000" stroke-width="1.02476" stroke-linecap="round" stroke-linejoin="round"/>
</svg>
