<?xml version="1.0" encoding="UTF-8" standalone="no"?>
<!-- Created with Inkscape (http://www.inkscape.org/) -->

<svg
   width="34.653259mm"
   height="13.80835mm"
   viewBox="0 0 34.653259 13.80835"
   version="1.1"
   id="svg5"
   inkscape:version="1.2.2 (b0a8486541, 2022-12-01)"
   sodipodi:docname="logo-admin.svg"
   xmlns:inkscape="http://www.inkscape.org/namespaces/inkscape"
   xmlns:sodipodi="http://sodipodi.sourceforge.net/DTD/sodipodi-0.dtd"
   xmlns="http://www.w3.org/2000/svg"
   xmlns:svg="http://www.w3.org/2000/svg">
  <sodipodi:namedview
     id="namedview7"
     pagecolor="#ffffff"
     bordercolor="#000000"
     borderopacity="0.25"
     inkscape:showpageshadow="2"
     inkscape:pageopacity="0.0"
     inkscape:pagecheckerboard="0"
     inkscape:deskcolor="#d1d1d1"
     inkscape:document-units="mm"
     showgrid="false"
     inkscape:zoom="6.0863076"
     inkscape:cx="40.993656"
     inkscape:cy="20.455752"
     inkscape:window-width="1824"
     inkscape:window-height="822"
     inkscape:window-x="2001"
     inkscape:window-y="50"
     inkscape:window-maximized="0"
     inkscape:current-layer="text1349-9" />
  <defs
     id="defs2" />
  <g
     inkscape:label="Слой 1"
     inkscape:groupmode="layer"
     id="layer1"
     transform="translate(-69.0076,-64.121092)">
    <g
       aria-label="чей-ход"
       id="text113-3-7-4"
       style="font-size:9.87778px;stroke-width:0.264583">
      <path
         d="m 72.674265,67.709512 h -0.671689 v 2.479322 h -1.274234 c -0.770467,0.02963 -1.0668,-0.276577 -1.047044,-1.076678 v -1.402644 h -0.671689 v 1.402644 c -0.03951,1.185334 0.503766,1.718734 1.718733,1.679223 h 1.274234 v 1.8669 h 0.671689 z"
         style="font-family:'URW Gothic';-inkscape-font-specification:'URW Gothic';fill:#ffffff"
         id="path5561" />
      <path
         d="m 78.689832,70.425901 c -0.01976,-0.602544 -0.07902,-0.918633 -0.246945,-1.3335 -0.414867,-0.968023 -1.214967,-1.491545 -2.3114,-1.491545 -1.442156,0 -2.558346,1.135945 -2.558346,2.607734 0,1.452034 1.11619,2.568223 2.578101,2.568223 0.632178,0 1.205089,-0.207434 1.659467,-0.602545 0.345722,-0.306211 0.5334,-0.582789 0.760589,-1.126067 h -0.691444 c -0.375356,0.750712 -0.958145,1.126067 -1.73849,1.126067 -0.484011,0 -0.928511,-0.167922 -1.274233,-0.493889 -0.3556,-0.325967 -0.523523,-0.671689 -0.602545,-1.254478 z m -4.425246,-0.602544 c 0.128411,-0.553156 0.316089,-0.879123 0.671689,-1.175456 0.335845,-0.286456 0.760589,-0.4445 1.205089,-0.4445 0.424745,0 0.819856,0.138289 1.135945,0.404989 0.365478,0.306211 0.553156,0.632178 0.691445,1.214967 z"
         style="font-family:'URW Gothic';-inkscape-font-specification:'URW Gothic';fill:#ffffff"
         id="path5563" />
      <path
         d="m 80.408558,65.971022 c 0.167923,0.740834 0.642056,1.135945 1.373012,1.135945 0.740833,0 1.214967,-0.395111 1.382889,-1.135945 h -0.572911 c -0.09878,0.404989 -0.375356,0.622301 -0.809978,0.622301 -0.424745,0 -0.7112,-0.217312 -0.8001,-0.622301 z m -0.07902,6.430435 2.89419,-3.447345 v 3.704167 h 0.671689 v -4.948767 h -0.671689 v 0.286455 l -2.89419,3.447345 v -3.7338 h -0.671689 v 4.948767 h 0.671689 z"
         style="font-family:'URW Gothic';-inkscape-font-specification:'URW Gothic';fill:#ffffff"
         id="path5565" />
      <path
         d="m 84.804168,69.734457 v 0.6223 h 2.676879 v -0.6223 z"
         style="font-family:'URW Gothic';-inkscape-font-specification:'URW Gothic';fill:#ffffff"
         id="path5567" />
      <path
         d="m 87.846532,72.658279 h 0.790222 l 1.303867,-1.985433 1.313745,1.985433 h 0.790223 l -1.698979,-2.518833 1.698979,-2.429934 h -0.790223 l -1.313745,1.906411 -1.303867,-1.906411 h -0.790222 l 1.6891,2.429934 z"
         style="fill:#42cf71"
         id="path5569" />
      <path
         d="m 94.978286,67.590978 c -1.452033,0 -2.568222,1.135945 -2.568222,2.597856 0,1.461912 1.116189,2.587979 2.587978,2.587979 1.461911,0 2.587978,-1.126067 2.587978,-2.587979 0,-1.481667 -1.116189,-2.597856 -2.607734,-2.597856 z m 0.02963,0.602545 c 1.086556,0 1.906411,0.859367 1.906411,1.995311 0,1.135945 -0.819855,1.985434 -1.916289,1.985434 -1.096434,0 -1.916289,-0.849489 -1.916289,-1.985434 0,-1.145822 0.819855,-1.995311 1.926167,-1.995311 z"
         style="fill:#42cf71"
         id="path5571" />
      <path
         d="m 101.22105,67.709512 h -0.73096 l -1.926165,4.346223 H 98.05028 v 1.8669 h 0.671689 v -1.264356 h 4.267201 v 1.264356 h 0.67169 v -1.8669 h -0.51365 z m -1.92617,4.346223 1.56069,-3.595512 1.56069,3.595512 z"
         style="fill:#42cf71"
         id="path5573" />
    </g>
    <path
       style="fill:#42cf71;fill-opacity:1;stroke-width:0.0828199"
       d="m 69.077298,67.462403 c 0,0 0.567446,-1.54993 0.426067,-1.836037 -0.0927,-0.187596 -0.423207,-0.193032 -0.423207,-0.193032 v -1.312243 h 0.550819 v 0.635895 l 0.404068,1.19e-4 v -0.636014 h 1.660904 v 0.636 h 0.385194 v -0.636 h 0.569692 c -0.02138,0.439461 0.01802,0.904752 0,1.313838 0,0 -0.332364,-0.01313 -0.387844,0.191455 -0.09927,0.366092 0.383812,1.836043 0.383812,1.836043 l -0.541737,-2.4e-5 -0.371072,-1.872066 -0.917015,-4.8e-5 -0.917015,-4.6e-5 -0.294714,1.872184 z"
       id="path707-2-9-2"
       sodipodi:nodetypes="csccccccccccccsccccccc" />
    <g
       aria-label="Admin panel"
       id="text1349-9"
       style="font-size:4.23333px;-inkscape-font-specification:sans-serif;fill:#42cf71;stroke-width:1.176">
      <path
         d="m 70.081315,75.507975 c 0.09737,-0.309033 0.186266,-0.613832 0.275166,-0.935566 h 0.01693 c 0.08467,0.321734 0.1778,0.626533 0.275167,0.935566 l 0.131233,0.423333 h -0.829733 z m -0.846666,1.553632 h 0.359833 l 0.266699,-0.846666 h 1.007533 l 0.262466,0.846666 h 0.372533 l -0.935565,-2.777064 h -0.397933 z"
         style="font-family:'Source Code Pro';-inkscape-font-specification:'Source Code Pro'"
         id="path5576" />
      <path
         d="m 72.786414,77.112407 c 0.254,0 0.499533,-0.148166 0.668866,-0.321733 h 0.0127 l 0.02963,0.270933 h 0.287867 v -3.01413 h -0.347133 v 0.791632 l 0.01693,0.381 h -0.0127 c -0.1778,-0.169333 -0.3683,-0.2667 -0.613833,-0.2667 -0.486833,0 -0.935566,0.414866 -0.935566,1.083733 0,0.685799 0.3556,1.075265 0.893233,1.075265 z m 0.07197,-0.292099 c -0.381,0 -0.605367,-0.296334 -0.605367,-0.7874 0,-0.469899 0.287867,-0.787399 0.643467,-0.787399 0.177799,0 0.355599,0.06773 0.541866,0.2413 v 1.024465 c -0.182033,0.2032 -0.376767,0.309034 -0.579966,0.309034 z"
         style="font-family:'Source Code Pro';-inkscape-font-specification:'Source Code Pro'"
         id="path5578" />
      <path
         d="m 74.424714,77.061607 h 0.347133 v -1.490132 c 0.1016,-0.211666 0.194733,-0.317499 0.338667,-0.317499 0.1524,0 0.211666,0.122766 0.211666,0.359833 v 1.447798 h 0.321733 v -1.490132 c 0.110067,-0.211666 0.186267,-0.317499 0.3302,-0.317499 0.1524,0 0.220133,0.122766 0.220133,0.359833 v 1.447798 h 0.347133 v -1.473198 c 0,-0.410633 -0.169333,-0.635 -0.4572,-0.635 -0.237066,0 -0.364066,0.135467 -0.482599,0.3556 -0.05927,-0.237067 -0.186267,-0.3556 -0.389466,-0.3556 -0.237067,0 -0.364067,0.131233 -0.4699,0.321733 h -0.0085 l -0.02963,-0.270933 h -0.2794 z"
         style="font-family:'Source Code Pro';-inkscape-font-specification:'Source Code Pro'"
         id="path5580" />
      <path
         d="m 78.056913,77.061607 h 0.347133 V 75.004209 H 77.10018 v 0.283633 h 0.956733 z m 0.135466,-2.489198 c 0.156634,0 0.2794,-0.105833 0.2794,-0.270933 0,-0.160866 -0.122766,-0.270933 -0.2794,-0.270933 -0.156633,0 -0.279399,0.110067 -0.279399,0.270933 0,0.1651 0.122766,0.270933 0.279399,0.270933 z"
         style="font-family:'Source Code Pro';-inkscape-font-specification:'Source Code Pro'"
         id="path5582" />
      <path
         d="m 79.65288,77.061607 h 0.347133 v -1.435098 c 0.2413,-0.249767 0.406399,-0.372533 0.651933,-0.372533 0.338666,0 0.474132,0.186266 0.474132,0.575732 v 1.231899 h 0.347134 v -1.278465 c 0,-0.541866 -0.224367,-0.829733 -0.7112,-0.829733 -0.321733,0 -0.558799,0.173567 -0.774699,0.402166 h -0.01693 l -0.02963,-0.351366 H 79.65288 Z"
         style="font-family:'Source Code Pro';-inkscape-font-specification:'Source Code Pro'"
         id="path5584" />
      <path
         d="m 84.732879,77.92944 h 0.347133 v -0.694266 l -0.01693,-0.389466 h 0.0127 c 0.182034,0.169333 0.423333,0.266699 0.613833,0.266699 0.4953,0 0.935566,-0.410633 0.935566,-1.109132 0,-0.639233 -0.296333,-1.049866 -0.850899,-1.049866 -0.254,0 -0.5207,0.131233 -0.7112,0.313267 h -0.0127 l -0.02963,-0.262467 h -0.287866 z m 0.897466,-1.109132 c -0.1397,0 -0.3556,-0.06773 -0.550333,-0.2413 v -1.024466 c 0.211666,-0.211667 0.423333,-0.309033 0.605366,-0.309033 0.410633,0 0.579966,0.3048 0.579966,0.757766 0,0.507999 -0.2667,0.817033 -0.634999,0.817033 z"
         style="fill:#ffffff"
         id="path5586" />
      <path
         d="m 87.920578,77.112407 c 0.2921,0 0.5842,-0.1524 0.812799,-0.330199 h 0.0127 l 0.02963,0.279399 h 0.283633 v -1.261532 c 0,-0.512233 -0.270933,-0.846666 -0.833966,-0.846666 -0.359833,0 -0.706966,0.160867 -0.914399,0.296333 l 0.135466,0.237067 c 0.1905,-0.118534 0.452966,-0.245533 0.719666,-0.245533 0.397933,0 0.537633,0.237066 0.5461,0.516466 -1.062566,0.08467 -1.490132,0.309033 -1.490132,0.770466 0,0.368299 0.313266,0.584199 0.698499,0.584199 z m 0.09313,-0.279399 c -0.237066,0 -0.452966,-0.09737 -0.452966,-0.3302 0,-0.270933 0.270933,-0.4445 1.151466,-0.516466 v 0.541866 c -0.232833,0.194733 -0.465666,0.3048 -0.6985,0.3048 z"
         style="fill:#ffffff"
         id="path5588" />
      <path
         d="m 89.812878,77.061607 h 0.347133 v -1.435098 c 0.2413,-0.249767 0.406399,-0.372533 0.651933,-0.372533 0.338666,0 0.474132,0.186266 0.474132,0.575732 v 1.231899 h 0.347133 v -1.278465 c 0,-0.541866 -0.224366,-0.829733 -0.711199,-0.829733 -0.321733,0 -0.558799,0.173567 -0.774699,0.402166 h -0.01693 l -0.02963,-0.351366 h -0.287866 z"
         style="fill:#ffffff"
         id="path5590" />
      <path
         d="m 93.305376,75.228576 c 0.351366,0 0.584199,0.207433 0.613833,0.630766 h -1.312333 c 0.0635,-0.4064 0.359834,-0.630766 0.6985,-0.630766 z m 0.0508,1.883831 c 0.3302,0 0.592666,-0.110066 0.795866,-0.245533 l -0.127,-0.2286 c -0.186267,0.118534 -0.381,0.194734 -0.626533,0.194734 -0.427566,0 -0.757766,-0.237067 -0.800099,-0.702733 h 1.621365 c 0.0085,-0.05503 0.01693,-0.131233 0.01693,-0.211667 0,-0.579966 -0.347133,-0.965199 -0.939799,-0.965199 -0.550333,0 -1.049866,0.4064 -1.049866,1.075266 0,0.685799 0.491067,1.083732 1.109133,1.083732 z"
         style="fill:#ffffff"
         id="path5592" />
      <path
         d="m 96.222141,77.112407 c 0.224367,0 0.359833,-0.04233 0.550333,-0.122766 l -0.0889,-0.258233 c -0.1397,0.0635 -0.2667,0.09313 -0.385233,0.09313 -0.245533,0 -0.406399,-0.127 -0.406399,-0.427566 v -2.349498 h -1.0795 v 0.283633 h 0.732366 v 2.040465 c 0,0.486833 0.2413,0.740832 0.677333,0.740832 z"
         style="fill:#ffffff"
         id="path5594" />
    </g>
  </g>
</svg>
