<svg width="15" height="15" viewBox="3 0 22 22" fill="none" xmlns="http://www.w3.org/2000/svg">
<g filter="url(#filter0_d_1_722)">
<path d="M22.164 7.91435V4.03736C22.164 2.83327 21.6174 2.34651 20.2596 2.34651H16.8096C15.4518 2.34651 14.9053 2.83327 14.9053 4.03736V7.90581C14.9053 9.11844 15.4518 9.59666 16.8096 9.59666H20.2596C21.6174 9.6052 22.164 9.11844 22.164 7.91435Z" stroke="#000" stroke-width="1.02476" stroke-linecap="round" stroke-linejoin="round"/>
<path d="M22.164 17.5214V14.0714C22.164 12.7136 21.6174 12.1671 20.2596 12.1671H16.8096C15.4518 12.1671 14.9053 12.7136 14.9053 14.0714V17.5214C14.9053 18.8792 15.4518 19.4258 16.8096 19.4258H20.2596C21.6174 19.4258 22.164 18.8792 22.164 17.5214Z" stroke="#000" stroke-width="1.02476" stroke-linecap="round" stroke-linejoin="round"/>
<path d="M12.3434 7.91435V4.03736C12.3434 2.83327 11.7969 2.34651 10.4391 2.34651H6.98905C5.63125 2.34651 5.08472 2.83327 5.08472 4.03736V7.90581C5.08472 9.11844 5.63125 9.59666 6.98905 9.59666H10.4391C11.7969 9.6052 12.3434 9.11844 12.3434 7.91435Z" stroke="#000" stroke-width="1.02476" stroke-linecap="round" stroke-linejoin="round"/>
<path d="M12.3434 17.5214V14.0714C12.3434 12.7136 11.7969 12.1671 10.4391 12.1671H6.98905C5.63125 12.1671 5.08472 12.7136 5.08472 14.0714V17.5214C5.08472 18.8792 5.63125 19.4258 6.98905 19.4258H10.4391C11.7969 19.4258 12.3434 18.8792 12.3434 17.5214Z" stroke="#000" stroke-width="1.02476" stroke-linecap="round" stroke-linejoin="round"/>
</g>
</svg>
