<?xml version="1.0" encoding="UTF-8" standalone="no"?>
<!-- Created with Inkscape (http://www.inkscape.org/) -->

<svg
   width="20.033497mm"
   height="47.616611mm"
   viewBox="0 0 20.033497 47.616611"
   version="1.1"
   id="svg11970"
   inkscape:version="1.2.2 (b0a8486541, 2022-12-01)"
   sodipodi:docname="logo.svg"
   xmlns:inkscape="http://www.inkscape.org/namespaces/inkscape"
   xmlns:sodipodi="http://sodipodi.sourceforge.net/DTD/sodipodi-0.dtd"
   xmlns="http://www.w3.org/2000/svg"
   xmlns:svg="http://www.w3.org/2000/svg">
  <sodipodi:namedview
     id="namedview11972"
     pagecolor="#ffffff"
     bordercolor="#000000"
     borderopacity="0.25"
     inkscape:showpageshadow="2"
     inkscape:pageopacity="0.0"
     inkscape:pagecheckerboard="0"
     inkscape:deskcolor="#d1d1d1"
     inkscape:document-units="mm"
     showgrid="false"
     inkscape:zoom="1.0759173"
     inkscape:cx="414.06528"
     inkscape:cy="220.27715"
     inkscape:window-width="1920"
     inkscape:window-height="1007"
     inkscape:window-x="1920"
     inkscape:window-y="0"
     inkscape:window-maximized="1"
     inkscape:current-layer="layer1" />
  <defs
     id="defs11967" />
  <g
     inkscape:label="Слой 1"
     inkscape:groupmode="layer"
     id="layer1"
     transform="translate(-3.7218965,-1.9650592)">
    <g
       aria-label="Ч"
       id="text697-3"
       style="font-size:43.899px;font-family:'URW Gothic';-inkscape-font-specification:'URW Gothic';stroke-width:1.17587">
      <path
         d="m 23.662329,19.862047 h -2.985132 v 15.101255 h -7.023839 c -4.960587,0 -6.979941,-1.799858 -6.936042,-6.277556 V 19.862047 H 3.7321842 v 8.823699 c -0.219495,6.058061 3.0729298,8.999294 9.9211738,8.955395 h 7.023839 v 11.940528 h 2.985132 z"
         id="path290" />
    </g>
    <path
       style="fill:#42cf71;fill-opacity:1;stroke-width:0.438243"
       d="m 3.8160507,18.755264 c 0,0 3.1618855,-7.788449 2.3741029,-9.2261407 C 5.6736107,8.5864374 3.8319877,8.5591277 3.8319877,8.5591277 V 1.9650593 h 3.0692412 v 3.1953949 l 2.2515179,5.955e-4 V 1.9650593 h 9.2547742 v 3.1959193 h 2.146355 V 1.9650593 h 3.1744 c -0.119194,2.2083023 0.100395,4.5464113 0,6.6020769 0,0 -1.851978,-0.065997 -2.161118,0.9620716 -0.553172,1.8396272 2.138652,9.2261802 2.138652,9.2261802 l -3.018634,-1.2e-4 -2.067661,-9.4071978 -5.10973,-2.4e-4 -5.1097292,-2.355e-4 -1.6421841,9.4077933 z"
       id="path707-7"
       sodipodi:nodetypes="csccccccccccccsccccccc" />
  </g>
</svg>
